<svg version="1.1" id="Layer_1" xmlns="http://www.w3.org/2000/svg" xmlns:xlink="http://www.w3.org/1999/xlink" x="0px" y="0px"
	 width="100%" viewBox="0 0 890 198" enable-background="new 0 0 890 198" xml:space="preserve">
<path fill="#FDFFFF" opacity="1.000000" stroke="none" 
	d="
M669.000000,199.000000 
	C446.051117,199.000000 223.602219,199.000000 1.076668,199.000000 
	C1.076668,133.066345 1.076668,67.132584 1.076668,1.099410 
	C297.666656,1.099410 594.333313,1.099410 890.974426,1.099410 
	C890.974426,67.064415 890.974426,133.032211 890.974426,199.000000 
	C817.132568,199.000000 743.316284,199.000000 669.000000,199.000000 
M29.181343,87.828316 
	C28.953823,88.799309 28.738749,89.773407 28.496992,90.740837 
	C18.820080,129.464523 52.496643,164.328873 91.540352,156.005905 
	C116.554039,150.673721 134.397659,127.931587 133.479309,102.553688 
	C132.534378,76.441895 113.094009,54.522804 87.790291,51.039173 
	C62.170052,47.511967 37.705845,62.690212 29.181343,87.828316 
M457.521881,96.714630 
	C457.360443,94.727539 457.005707,92.734314 457.068634,90.754349 
	C457.502716,77.092201 462.980682,66.160164 475.389374,59.775585 
	C487.421143,53.584957 499.118866,54.461750 509.856049,63.238644 
	C512.908813,65.734085 516.174805,65.903725 518.578735,62.610214 
	C520.862732,59.481030 519.449280,56.643127 516.631165,54.409203 
	C504.203918,44.558094 490.196198,42.810520 475.608795,47.684071 
	C453.423920,55.095882 441.496613,78.561821 447.033844,102.510330 
	C454.232483,133.644653 490.751678,146.888657 516.025940,127.432297 
	C517.521606,126.280914 518.981995,124.030777 519.041748,122.244522 
	C519.342590,113.258118 519.230957,104.255356 519.139648,95.259598 
	C519.101196,91.480331 516.858582,89.313095 513.199097,89.214516 
	C506.206573,89.026161 499.203522,89.060730 492.208710,89.199020 
	C488.836212,89.265686 486.282867,90.950562 486.299896,94.609665 
	C486.317383,98.373466 489.110321,99.667755 492.391357,99.810349 
	C496.050079,99.969360 499.721161,99.898666 503.385834,99.850151 
	C506.527802,99.808563 507.963684,101.330353 507.939850,104.420074 
	C507.911591,108.085258 507.721832,111.767136 507.998077,115.411758 
	C508.285370,119.201584 506.500519,121.144882 503.294067,122.685158 
	C484.089172,131.910507 461.622498,119.562416 457.521881,96.714630 
M301.271393,127.567642 
	C300.741180,125.535416 300.786591,122.370277 299.544495,121.739143 
	C297.726898,120.815636 294.529419,120.920677 292.720978,121.969017 
	C286.159180,125.772804 279.465057,126.794640 272.109497,125.104240 
	C266.089294,123.720726 257.302643,115.446709 258.526917,108.182236 
	C272.144836,108.182236 285.796814,108.152924 299.448456,108.203529 
	C302.727264,108.215683 305.730316,107.761330 305.975586,103.776031 
	C306.584930,93.874352 302.481720,80.103149 289.515106,75.003853 
	C277.856201,70.418839 263.843842,73.107811 255.667099,81.515839 
	C247.078751,90.347107 244.837219,105.446632 249.594681,117.404358 
	C256.396454,134.500366 282.537537,143.066010 301.271393,127.567642 
M585.312683,76.011368 
	C578.642944,72.671288 571.561584,72.034462 564.385559,73.434196 
	C551.848938,75.879501 542.693970,85.769974 540.990601,98.249725 
	C538.911682,113.480537 544.504761,125.969177 556.773132,131.925842 
	C571.563354,139.106934 583.497742,135.979324 593.435852,128.744232 
	C594.482727,127.982063 595.288147,125.672348 594.915222,124.486244 
	C594.458496,123.033295 592.761841,121.198196 591.384033,120.994041 
	C589.483887,120.712479 587.148438,121.391045 585.405945,122.376846 
	C578.971619,126.016983 572.287415,126.938057 565.209534,124.969666 
	C557.574097,122.846222 551.627563,115.259689 552.190369,108.168823 
	C565.809204,108.168823 579.452942,108.198952 593.096436,108.153175 
	C598.159363,108.136192 599.806335,106.458458 599.564453,101.595055 
	C599.039551,91.040993 595.288452,82.177269 585.312683,76.011368 
M845.113281,125.472519 
	C843.470215,120.526199 840.621033,119.406380 836.148743,121.653511 
	C833.207825,123.131172 830.184753,124.634094 827.024109,125.452209 
	C814.838501,128.606476 802.451904,120.174431 801.685425,108.143867 
	C803.188110,108.143867 804.672485,108.143906 806.156860,108.143867 
	C818.468872,108.143509 830.781067,108.182259 843.092834,108.124222 
	C848.283447,108.099754 849.844604,106.241295 849.388611,101.007469 
	C849.302063,100.013779 849.169189,99.024200 849.072510,98.031281 
	C847.902161,86.015160 840.888672,77.232040 829.819946,73.925468 
	C818.289307,70.480904 804.506653,74.450745 797.603455,83.204872 
	C789.291748,93.745171 787.986084,108.735298 794.374146,120.279045 
	C800.204102,130.814270 813.568176,137.487671 826.706116,135.672775 
	C833.721313,134.703659 840.655334,132.709885 845.113281,125.472519 
M214.587860,64.627007 
	C214.687698,57.845566 214.943298,57.579681 221.617905,57.561115 
	C226.780502,57.546757 231.943542,57.519993 237.105698,57.570568 
	C241.002594,57.608749 244.308899,56.753754 244.309067,52.035755 
	C244.309235,47.360325 241.053787,46.425972 237.139816,46.430946 
	C217.988098,46.455276 198.836334,46.441681 179.684586,46.442467 
	C175.771469,46.442627 172.625320,47.440933 172.725983,52.210236 
	C172.820938,56.709213 175.876953,57.565033 179.566757,57.560246 
	C185.562073,57.552464 191.558060,57.614918 197.552475,57.541553 
	C201.055450,57.498680 202.890320,58.947609 202.727127,62.585079 
	C202.674942,63.748470 202.720505,64.916229 202.720566,66.081985 
	C202.721573,86.732567 202.694489,107.383202 202.741776,128.033676 
	C202.754684,133.673676 205.623428,136.301178 210.308167,135.050461 
	C214.477432,133.937378 214.583069,130.474976 214.583862,127.050476 
	C214.588623,106.566437 214.587158,86.082390 214.587860,64.627007 
M670.011353,91.801056 
	C670.710205,95.347450 671.893066,98.877640 672.012390,102.443443 
	C672.307556,111.258987 672.092102,120.090927 672.130432,128.916077 
	C672.147095,132.752640 673.759888,135.516815 677.921997,135.545517 
	C682.039490,135.573944 683.876343,132.888657 683.895386,129.051880 
	C683.945007,119.062195 684.266357,109.048866 683.716858,99.087021 
	C682.865540,83.652870 674.075134,74.366005 658.847778,72.989029 
	C649.762939,72.167519 640.569580,72.394394 631.426392,72.436188 
	C627.183777,72.455566 625.295227,75.157898 625.302673,79.344673 
	C625.331787,95.663094 625.313354,111.981590 625.313599,128.300064 
	C625.313660,132.218613 626.494385,135.298752 631.020874,135.575623 
	C634.955872,135.816330 637.007141,133.291168 637.031921,128.214722 
	C637.079895,118.390556 637.004517,108.565758 637.061646,98.741699 
	C637.101685,91.850983 640.491272,86.898987 646.688477,84.400658 
	C655.152954,80.988281 664.179871,83.622261 670.011353,91.801056 
M369.513519,81.932579 
	C377.154297,96.491348 384.900696,110.996788 392.311523,125.671677 
	C393.317230,127.663101 393.407562,130.796371 392.604034,132.896820 
	C389.998291,139.708145 386.761353,146.276901 383.802582,152.954620 
	C381.517456,158.111877 382.087708,160.412155 385.859680,162.037308 
	C390.444672,164.012741 392.136597,161.082153 393.659637,157.627121 
	C398.279724,147.146484 402.958160,136.691589 407.597717,126.219521 
	C414.120819,111.496086 420.604126,96.754944 427.161804,82.046944 
	C428.831665,78.301605 428.826416,75.313385 424.406921,73.575554 
	C420.391663,71.996674 418.637512,74.209122 417.207123,77.464462 
	C411.426178,90.620834 405.570190,103.744217 399.465332,117.503059 
	C398.276337,115.297668 397.383301,113.734222 396.575439,112.127953 
	C390.680725,100.408058 384.812469,88.674835 378.913696,76.956985 
	C377.415283,73.980484 375.228821,72.008499 371.721710,73.530113 
	C368.175934,75.068489 367.297394,77.793495 369.513519,81.932579 
M753.045654,122.664963 
	C738.587952,129.685989 724.403809,122.657265 722.219910,107.389801 
	C720.434387,94.907616 727.521484,84.891388 739.578308,83.279213 
	C745.406921,82.499832 750.809998,83.757500 755.078125,88.276184 
	C757.712341,91.065071 760.688660,92.101265 763.672424,88.897003 
	C766.744507,85.597847 764.253540,83.154099 762.029968,80.802170 
	C761.461853,80.201347 760.803955,79.674881 760.140747,79.176086 
	C749.614929,71.259171 738.150818,70.554512 726.799744,76.383469 
	C714.251038,82.827400 709.917725,94.281662 711.127075,107.800728 
	C712.266846,120.541481 718.904602,129.661285 731.162537,133.866730 
	C741.827454,137.525635 752.149048,136.786133 761.336060,129.435577 
	C763.598694,127.625275 765.085815,125.478600 763.215088,122.580956 
	C761.342834,119.680908 758.781189,119.366570 755.865845,120.997498 
	C755.140198,121.403465 754.415466,121.811180 753.045654,122.664963 
M329.808502,62.515606 
	C329.808502,72.492004 329.791901,82.468437 329.813751,92.444786 
	C329.831940,100.757668 329.611664,109.083954 330.006714,117.380035 
	C330.568268,129.172501 339.313782,137.116104 349.365356,134.850433 
	C351.470306,134.375961 354.074432,131.495636 354.419525,129.391220 
	C354.666656,127.884354 351.800934,124.675240 349.852539,124.212906 
	C342.640839,122.501709 341.151184,121.243782 341.084229,113.767532 
	C341.009796,105.454536 341.065582,97.140358 341.064911,88.826698 
	C341.063934,77.021301 341.018585,65.215637 341.087646,53.410645 
	C341.110443,49.516895 339.683014,46.679241 335.587341,46.599922 
	C331.204620,46.515034 329.592743,49.380226 329.787048,53.543301 
	C329.910980,56.197861 329.809113,58.862957 329.808502,62.515606 
z"/>
<path fill="#151515" opacity="1.000000" stroke="none" 
	d="
M29.386951,87.487457 
	C37.705845,62.690212 62.170052,47.511967 87.790291,51.039173 
	C113.094009,54.522804 132.534378,76.441895 133.479309,102.553688 
	C134.397659,127.931587 116.554039,150.673721 91.540352,156.005905 
	C52.496643,164.328873 18.820080,129.464523 28.496992,90.740837 
	C28.738749,89.773407 28.953823,88.799309 29.386951,87.487457 
M83.506912,81.112015 
	C78.758873,81.112015 74.010826,81.112015 69.623009,81.112015 
	C68.132896,85.873161 69.900261,88.250801 73.253723,90.413712 
	C79.086014,94.175415 84.610748,98.413963 90.759331,102.806122 
	C84.713455,107.049141 79.166344,111.236382 73.313377,114.940292 
	C69.756340,117.191284 68.064941,119.697281 69.583336,124.045517 
	C83.664513,124.045517 97.740471,124.045517 112.049545,124.045517 
	C112.049545,109.750801 112.049545,95.679413 112.049545,81.112015 
	C102.742355,81.112015 93.623642,81.112015 83.506912,81.112015 
M74.006416,100.352196 
	C64.438278,94.868256 54.870148,89.384315 44.805344,83.615707 
	C44.805344,96.524467 44.805344,108.713257 44.805344,121.771912 
	C56.140026,115.258423 66.964821,109.037941 78.034149,102.676941 
	C76.608543,101.877083 75.601227,101.311913 74.006416,100.352196 
z"/>
<path fill="#2F6F70" opacity="1.000000" stroke="none" 
	d="
M457.622375,97.131310 
	C461.622498,119.562416 484.089172,131.910507 503.294067,122.685158 
	C506.500519,121.144882 508.285370,119.201584 507.998077,115.411758 
	C507.721832,111.767136 507.911591,108.085258 507.939850,104.420074 
	C507.963684,101.330353 506.527802,99.808563 503.385834,99.850151 
	C499.721161,99.898666 496.050079,99.969360 492.391357,99.810349 
	C489.110321,99.667755 486.317383,98.373466 486.299896,94.609665 
	C486.282867,90.950562 488.836212,89.265686 492.208710,89.199020 
	C499.203522,89.060730 506.206573,89.026161 513.199097,89.214516 
	C516.858582,89.313095 519.101196,91.480331 519.139648,95.259598 
	C519.230957,104.255356 519.342590,113.258118 519.041748,122.244522 
	C518.981995,124.030777 517.521606,126.280914 516.025940,127.432297 
	C490.751678,146.888657 454.232483,133.644653 447.033844,102.510330 
	C441.496613,78.561821 453.423920,55.095882 475.608795,47.684071 
	C490.196198,42.810520 504.203918,44.558094 516.631165,54.409203 
	C519.449280,56.643127 520.862732,59.481030 518.578735,62.610214 
	C516.174805,65.903725 512.908813,65.734085 509.856049,63.238644 
	C499.118866,54.461750 487.421143,53.584957 475.389374,59.775585 
	C462.980682,66.160164 457.502716,77.092201 457.068634,90.754349 
	C457.005707,92.734314 457.360443,94.727539 457.622375,97.131310 
z"/>
<path fill="#1D2D2D" opacity="1.000000" stroke="none" 
	d="
M301.041473,127.857986 
	C282.537537,143.066010 256.396454,134.500366 249.594681,117.404358 
	C244.837219,105.446632 247.078751,90.347107 255.667099,81.515839 
	C263.843842,73.107811 277.856201,70.418839 289.515106,75.003853 
	C302.481720,80.103149 306.584930,93.874352 305.975586,103.776031 
	C305.730316,107.761330 302.727264,108.215683 299.448456,108.203529 
	C285.796814,108.152924 272.144836,108.182236 258.526917,108.182236 
	C257.302643,115.446709 266.089294,123.720726 272.109497,125.104240 
	C279.465057,126.794640 286.159180,125.772804 292.720978,121.969017 
	C294.529419,120.920677 297.726898,120.815636 299.544495,121.739143 
	C300.786591,122.370277 300.741180,125.535416 301.041473,127.857986 
M295.023285,98.771339 
	C294.581268,89.359871 287.958618,83.005486 278.383545,82.598320 
	C267.155762,82.120888 258.651947,89.717247 258.340027,99.112549 
	C270.286774,99.112549 282.227203,99.112549 295.023285,98.771339 
z"/>
<path fill="#368687" opacity="1.000000" stroke="none" 
	d="
M585.656616,76.157501 
	C595.288452,82.177269 599.039551,91.040993 599.564453,101.595055 
	C599.806335,106.458458 598.159363,108.136192 593.096436,108.153175 
	C579.452942,108.198952 565.809204,108.168823 552.190369,108.168823 
	C551.627563,115.259689 557.574097,122.846222 565.209534,124.969666 
	C572.287415,126.938057 578.971619,126.016983 585.405945,122.376846 
	C587.148438,121.391045 589.483887,120.712479 591.384033,120.994041 
	C592.761841,121.198196 594.458496,123.033295 594.915222,124.486244 
	C595.288147,125.672348 594.482727,127.982063 593.435852,128.744232 
	C583.497742,135.979324 571.563354,139.106934 556.773132,131.925842 
	C544.504761,125.969177 538.911682,113.480537 540.990601,98.249725 
	C542.693970,85.769974 551.848938,75.879501 564.385559,73.434196 
	C571.561584,72.034462 578.642944,72.671288 585.656616,76.157501 
M588.018433,94.739891 
	C584.008850,84.989441 576.956848,81.121902 566.593262,82.989662 
	C558.123230,84.516159 552.210083,90.946716 552.093628,98.787125 
	C564.298584,98.787125 576.500061,98.787125 589.013977,98.787125 
	C588.684753,97.425270 588.453918,96.470543 588.018433,94.739891 
z"/>
<path fill="#48C8CA" opacity="1.000000" stroke="none" 
	d="
M845.086609,125.859619 
	C840.655334,132.709885 833.721313,134.703659 826.706116,135.672775 
	C813.568176,137.487671 800.204102,130.814270 794.374146,120.279045 
	C787.986084,108.735298 789.291748,93.745171 797.603455,83.204872 
	C804.506653,74.450745 818.289307,70.480904 829.819946,73.925468 
	C840.888672,77.232040 847.902161,86.015160 849.072510,98.031281 
	C849.169189,99.024200 849.302063,100.013779 849.388611,101.007469 
	C849.844604,106.241295 848.283447,108.099754 843.092834,108.124222 
	C830.781067,108.182259 818.468872,108.143509 806.156860,108.143867 
	C804.672485,108.143906 803.188110,108.143867 801.685425,108.143867 
	C802.451904,120.174431 814.838501,128.606476 827.024109,125.452209 
	C830.184753,124.634094 833.207825,123.131172 836.148743,121.653511 
	C840.621033,119.406380 843.470215,120.526199 845.086609,125.859619 
M813.741272,83.818596 
	C806.067810,86.748611 802.180420,91.707237 802.120728,98.769760 
	C814.273560,98.769760 826.423096,98.769760 838.627319,98.769760 
	C836.458496,85.720963 828.117065,80.566261 813.741272,83.818596 
z"/>
<path fill="#1E1E1E" opacity="1.000000" stroke="none" 
	d="
M214.587830,65.112679 
	C214.587158,86.082390 214.588623,106.566437 214.583862,127.050476 
	C214.583069,130.474976 214.477432,133.937378 210.308167,135.050461 
	C205.623428,136.301178 202.754684,133.673676 202.741776,128.033676 
	C202.694489,107.383202 202.721573,86.732567 202.720566,66.081985 
	C202.720505,64.916229 202.674942,63.748470 202.727127,62.585079 
	C202.890320,58.947609 201.055450,57.498680 197.552475,57.541553 
	C191.558060,57.614918 185.562073,57.552464 179.566757,57.560246 
	C175.876953,57.565033 172.820938,56.709213 172.725983,52.210236 
	C172.625320,47.440933 175.771469,46.442627 179.684586,46.442467 
	C198.836334,46.441681 217.988098,46.455276 237.139816,46.430946 
	C241.053787,46.425972 244.309235,47.360325 244.309067,52.035755 
	C244.308899,56.753754 241.002594,57.608749 237.105698,57.570568 
	C231.943542,57.519993 226.780502,57.546757 221.617905,57.561115 
	C214.943298,57.579681 214.687698,57.845566 214.587830,65.112679 
z"/>
<path fill="#3E9E9F" opacity="1.000000" stroke="none" 
	d="
M669.843140,91.454430 
	C664.179871,83.622261 655.152954,80.988281 646.688477,84.400658 
	C640.491272,86.898987 637.101685,91.850983 637.061646,98.741699 
	C637.004517,108.565758 637.079895,118.390556 637.031921,128.214722 
	C637.007141,133.291168 634.955872,135.816330 631.020874,135.575623 
	C626.494385,135.298752 625.313660,132.218613 625.313599,128.300064 
	C625.313354,111.981590 625.331787,95.663094 625.302673,79.344673 
	C625.295227,75.157898 627.183777,72.455566 631.426392,72.436188 
	C640.569580,72.394394 649.762939,72.167519 658.847778,72.989029 
	C674.075134,74.366005 682.865540,83.652870 683.716858,99.087021 
	C684.266357,109.048866 683.945007,119.062195 683.895386,129.051880 
	C683.876343,132.888657 682.039490,135.573944 677.921997,135.545517 
	C673.759888,135.516815 672.147095,132.752640 672.130432,128.916077 
	C672.092102,120.090927 672.307556,111.258987 672.012390,102.443443 
	C671.893066,98.877640 670.710205,95.347450 669.843140,91.454430 
z"/>
<path fill="#29595A" opacity="1.000000" stroke="none" 
	d="
M369.321899,81.605896 
	C367.297394,77.793495 368.175934,75.068489 371.721710,73.530113 
	C375.228821,72.008499 377.415283,73.980484 378.913696,76.956985 
	C384.812469,88.674835 390.680725,100.408058 396.575439,112.127953 
	C397.383301,113.734222 398.276337,115.297668 399.465332,117.503059 
	C405.570190,103.744217 411.426178,90.620834 417.207123,77.464462 
	C418.637512,74.209122 420.391663,71.996674 424.406921,73.575554 
	C428.826416,75.313385 428.831665,78.301605 427.161804,82.046944 
	C420.604126,96.754944 414.120819,111.496086 407.597717,126.219521 
	C402.958160,136.691589 398.279724,147.146484 393.659637,157.627121 
	C392.136597,161.082153 390.444672,164.012741 385.859680,162.037308 
	C382.087708,160.412155 381.517456,158.111877 383.802582,152.954620 
	C386.761353,146.276901 389.998291,139.708145 392.604034,132.896820 
	C393.407562,130.796371 393.317230,127.663101 392.311523,125.671677 
	C384.900696,110.996788 377.154297,96.491348 369.321899,81.605896 
z"/>
<path fill="#42B2B4" opacity="1.000000" stroke="none" 
	d="
M753.367981,122.441528 
	C754.415466,121.811180 755.140198,121.403465 755.865845,120.997498 
	C758.781189,119.366570 761.342834,119.680908 763.215088,122.580956 
	C765.085815,125.478600 763.598694,127.625275 761.336060,129.435577 
	C752.149048,136.786133 741.827454,137.525635 731.162537,133.866730 
	C718.904602,129.661285 712.266846,120.541481 711.127075,107.800728 
	C709.917725,94.281662 714.251038,82.827400 726.799744,76.383469 
	C738.150818,70.554512 749.614929,71.259171 760.140747,79.176086 
	C760.803955,79.674881 761.461853,80.201347 762.029968,80.802170 
	C764.253540,83.154099 766.744507,85.597847 763.672424,88.897003 
	C760.688660,92.101265 757.712341,91.065071 755.078125,88.276184 
	C750.809998,83.757500 745.406921,82.499832 739.578308,83.279213 
	C727.521484,84.891388 720.434387,94.907616 722.219910,107.389801 
	C724.403809,122.657265 738.587952,129.685989 753.367981,122.441528 
z"/>
<path fill="#204040" opacity="1.000000" stroke="none" 
	d="
M329.808502,62.019470 
	C329.809113,58.862957 329.910980,56.197861 329.787048,53.543301 
	C329.592743,49.380226 331.204620,46.515034 335.587341,46.599922 
	C339.683014,46.679241 341.110443,49.516895 341.087646,53.410645 
	C341.018585,65.215637 341.063934,77.021301 341.064911,88.826698 
	C341.065582,97.140358 341.009796,105.454536 341.084229,113.767532 
	C341.151184,121.243782 342.640839,122.501709 349.852539,124.212906 
	C351.800934,124.675240 354.666656,127.884354 354.419525,129.391220 
	C354.074432,131.495636 351.470306,134.375961 349.365356,134.850433 
	C339.313782,137.116104 330.568268,129.172501 330.006714,117.380035 
	C329.611664,109.083954 329.831940,100.757668 329.813751,92.444786 
	C329.791901,82.468437 329.808502,72.492004 329.808502,62.019470 
z"/>
<path fill="#FBFCFC" opacity="1.000000" stroke="none" 
	d="
M84.005920,81.112015 
	C93.623642,81.112015 102.742355,81.112015 112.049545,81.112015 
	C112.049545,95.679413 112.049545,109.750801 112.049545,124.045517 
	C97.740471,124.045517 83.664513,124.045517 69.583336,124.045517 
	C68.064941,119.697281 69.756340,117.191284 73.313377,114.940292 
	C79.166344,111.236382 84.713455,107.049141 90.759331,102.806122 
	C84.610748,98.413963 79.086014,94.175415 73.253723,90.413712 
	C69.900261,88.250801 68.132896,85.873161 69.623009,81.112015 
	C74.010826,81.112015 78.758873,81.112015 84.005920,81.112015 
z"/>
<path fill="#FBFCFC" opacity="1.000000" stroke="none" 
	d="
M74.300156,100.549469 
	C75.601227,101.311913 76.608543,101.877083 78.034149,102.676941 
	C66.964821,109.037941 56.140026,115.258423 44.805344,121.771912 
	C44.805344,108.713257 44.805344,96.524467 44.805344,83.615707 
	C54.870148,89.384315 64.438278,94.868256 74.300156,100.549469 
z"/>
<path fill="#FCFDFD" opacity="1.000000" stroke="none" 
	d="
M294.595459,98.941940 
	C282.227203,99.112549 270.286774,99.112549 258.340027,99.112549 
	C258.651947,89.717247 267.155762,82.120888 278.383545,82.598320 
	C287.958618,83.005486 294.581268,89.359871 294.595459,98.941940 
z"/>
<path fill="#FBFDFD" opacity="1.000000" stroke="none" 
	d="
M588.120728,95.127853 
	C588.453918,96.470543 588.684753,97.425270 589.013977,98.787125 
	C576.500061,98.787125 564.298584,98.787125 552.093628,98.787125 
	C552.210083,90.946716 558.123230,84.516159 566.593262,82.989662 
	C576.956848,81.121902 584.008850,84.989441 588.120728,95.127853 
z"/>
<path fill="#FCFEFE" opacity="1.000000" stroke="none" 
	d="
M814.134583,83.688850 
	C828.117065,80.566261 836.458496,85.720963 838.627319,98.769760 
	C826.423096,98.769760 814.273560,98.769760 802.120728,98.769760 
	C802.180420,91.707237 806.067810,86.748611 814.134583,83.688850 
z"/>
</svg>