<svg version="1.1" id="Layer_1" xmlns="http://www.w3.org/2000/svg" xmlns:xlink="http://www.w3.org/1999/xlink" x="0px" y="0px"
	 width="100%" viewBox="0 0 400 300" enable-background="new 0 0 400 300" xml:space="preserve">
<path fill="#EFEFF1" opacity="0.000000" stroke="none" 
	d="
M276.000000,301.000000 
	C184.000015,301.000000 92.500031,301.000000 1.000037,301.000000 
	C1.000025,201.000031 1.000025,101.000069 1.000012,1.000077 
	C134.333267,1.000051 267.666534,1.000051 400.999878,1.000026 
	C400.999908,100.999931 400.999908,200.999863 400.999939,300.999878 
	C359.500000,301.000000 318.000000,301.000000 276.000000,301.000000 
M275.033325,78.031433 
	C275.033325,78.031433 275.058197,78.111084 275.573212,77.933350 
	C275.687164,77.626488 275.801086,77.319633 276.085876,76.341949 
	C276.005798,75.889404 275.925751,75.436859 275.901489,74.455315 
	C275.611542,74.268448 275.321625,74.081589 275.000244,72.999603 
	C274.784485,70.059151 274.501129,67.121727 274.368958,64.177521 
	C274.174713,59.849724 272.251038,58.555340 267.913330,59.467865 
	C262.011292,60.709469 255.974152,61.308788 249.268402,62.256828 
	C247.922928,62.585766 246.577438,62.914703 244.541016,63.412560 
	C246.575714,64.933083 248.221878,66.163261 250.139603,67.910103 
	C251.042068,68.625198 251.944550,69.340294 253.128220,70.668274 
	C254.377029,71.567528 255.625839,72.466789 257.133423,73.892586 
	C258.039093,74.613045 258.944733,75.333511 260.131714,76.662148 
	C261.754974,77.785675 263.378204,78.909210 265.820435,80.253906 
	C268.550598,79.802010 271.280792,79.350121 274.547821,78.939713 
	C274.736206,78.645302 274.924561,78.350891 275.033325,78.031433 
M147.381439,162.494110 
	C148.075577,162.486847 148.769714,162.479568 149.463852,162.472290 
	C149.290253,161.973419 149.116638,161.474548 148.824463,160.313141 
	C148.888260,159.874527 148.952057,159.435928 149.448242,158.778824 
	C149.715378,158.577240 149.899429,158.316910 150.916809,157.785797 
	C190.205582,157.777939 229.494370,157.770721 268.783142,157.759674 
	C270.280334,157.759262 271.869965,158.024078 273.244629,157.603516 
	C274.292633,157.282852 275.839752,156.071198 275.839783,155.255920 
	C275.839905,149.858582 275.481934,144.461227 275.055603,138.478409 
	C274.704834,138.314331 274.354095,138.150269 273.368561,137.442429 
	C272.875305,137.383087 272.382050,137.271881 271.888794,137.271774 
	C225.029037,137.261749 178.169296,137.252747 131.309570,137.293335 
	C129.868591,137.294586 128.428070,137.816879 126.459854,138.078476 
	C126.358208,138.377487 126.256561,138.676483 125.973213,139.893311 
	C125.881454,144.268509 125.789703,148.643692 125.038033,153.234543 
	C125.255669,155.150055 125.473305,157.065582 125.889175,159.492279 
	C125.953659,159.663284 126.018143,159.834305 125.967155,160.882721 
	C127.064568,161.245041 128.156174,161.899033 129.260345,161.921021 
	C135.173569,162.038666 141.089935,161.998734 147.381439,162.494110 
M245.454941,129.191818 
	C245.960617,129.414078 246.466309,129.636322 247.901123,130.016251 
	C252.379379,130.021561 256.857635,130.030914 261.335876,130.031448 
	C276.987823,130.033356 277.019897,130.030045 275.963562,114.265564 
	C275.874084,112.930313 275.334381,111.174202 274.372650,110.436470 
	C271.893677,108.534874 261.840179,110.182137 259.705597,112.668060 
	C255.073380,118.062675 250.539108,123.541389 245.454941,129.191818 
M126.013626,129.560349 
	C126.333145,129.660172 126.652672,129.759995 127.901077,130.018906 
	C141.562469,130.023773 155.224243,130.078445 168.884705,129.968216 
	C170.525772,129.954971 172.724197,129.554565 173.700745,128.467789 
	C178.355576,123.287529 182.677475,117.808098 187.713348,112.069145 
	C188.060745,111.460777 188.408142,110.852409 188.755554,110.244049 
	C188.173447,110.191864 187.591354,110.139679 186.087128,109.900696 
	C177.610626,109.894478 169.133408,109.832565 160.658386,109.941422 
	C159.370850,109.957970 157.648682,110.381218 156.879059,111.268326 
	C147.355759,122.245262 141.467026,123.885612 128.296692,118.245857 
	C127.635864,117.896095 126.975037,117.546333 126.314209,117.196579 
	C126.241745,117.794327 126.169289,118.392075 125.914917,119.885170 
	C125.972862,122.928520 126.030807,125.971878 126.013626,129.560349 
M125.872276,224.908096 
	C125.861412,228.903717 126.144600,232.927505 125.764969,236.887787 
	C125.294609,241.794449 127.203049,243.082520 131.970566,243.064880 
	C175.590454,242.903381 219.211182,242.969727 262.831665,242.969986 
	C275.976776,242.970062 275.976776,242.970627 275.977509,229.910538 
	C275.977905,222.683487 275.977905,222.675751 268.832733,222.675430 
	C223.047882,222.673370 177.263016,222.672562 131.478165,222.686279 
	C129.989929,222.686722 128.501724,222.847610 126.387871,222.874252 
	C126.278755,223.245132 126.169632,223.616013 125.872276,224.908096 
M127.914238,216.177460 
	C173.393372,216.184204 218.872498,216.203018 264.351624,216.187256 
	C273.186768,216.184204 275.935394,213.373459 275.960510,204.512421 
	C275.985107,195.849777 275.986481,187.187012 275.968231,178.524353 
	C275.952362,170.981995 272.944855,167.954269 265.401459,167.947662 
	C243.911316,167.928848 222.421097,167.918076 200.930984,167.947845 
	C176.280670,167.982010 151.630417,168.063065 126.424446,168.056610 
	C126.309586,168.365784 126.194733,168.674957 125.902496,169.907318 
	C125.958954,175.608978 126.015419,181.310623 125.995224,187.577942 
	C126.323265,187.684540 126.651299,187.791153 127.905441,188.069321 
	C169.455231,188.069321 211.005005,188.069321 252.766006,188.069321 
	C252.766006,190.979416 252.766006,193.215561 252.766006,195.994965 
	C250.734619,195.994965 248.946014,195.994965 247.157410,195.994980 
	C213.204620,195.995010 179.251785,195.967422 145.299042,196.009628 
	C133.000427,196.024902 125.692795,203.325989 125.993843,215.605515 
	C126.327583,215.729279 126.661316,215.853043 127.914238,216.177460 
M126.096634,104.836754 
	C126.705643,106.189079 127.169182,107.632355 127.948227,108.878372 
	C131.830505,115.087746 139.945236,116.969925 146.284668,113.209297 
	C152.644470,109.436577 154.792953,101.504837 151.209274,95.028603 
	C148.193909,89.579407 141.783630,86.759010 135.972473,88.369659 
	C130.261032,89.952667 124.749969,95.223938 126.096634,104.836754 
M187.426208,91.102318 
	C181.724579,86.244682 176.059006,81.343498 170.288574,76.569000 
	C169.232544,75.695236 167.677948,74.707108 166.476074,74.844467 
	C159.398376,75.653282 152.356949,76.779678 144.537506,77.909775 
	C151.205414,83.623199 157.158585,88.900208 163.352127,93.878143 
	C164.547028,94.838509 166.744507,95.091331 168.374252,94.875587 
	C174.794739,94.025658 181.173248,92.858688 187.426208,91.102318 
M231.129105,78.379715 
	C227.484100,75.245834 223.932816,71.991356 220.141830,69.045334 
	C218.863876,68.052223 216.903702,67.206490 215.382156,67.383507 
	C208.722137,68.158333 202.108673,69.333229 194.597672,70.499748 
	C201.473145,76.433365 207.793839,81.925339 214.184357,87.334831 
	C214.711960,87.781448 215.745636,87.890488 216.489090,87.781311 
	C223.430206,86.761925 230.359283,85.660492 238.243011,84.434959 
	C235.613968,82.206825 233.635437,80.530029 231.129105,78.379715 
M200.184418,126.462555 
	C199.596298,127.380409 199.008163,128.298264 197.926910,129.985748 
	C205.449188,129.985748 212.194061,130.018539 218.937561,129.936920 
	C219.640610,129.928406 220.521713,129.403473 221.005325,128.845337 
	C225.957596,123.130157 230.844742,117.358566 236.335281,110.916023 
	C231.040802,110.916023 226.589264,111.274445 222.219482,110.829681 
	C216.091644,110.205986 211.415237,111.676842 208.018280,117.222725 
	C206.046982,120.441071 203.146393,123.090225 200.184418,126.462555 
z"/>
<path fill="#121212" opacity="1.000000" stroke="none" 
	d="
M126.071877,187.012283 
	C126.015419,181.310623 125.958954,175.608978 126.187744,169.356628 
	C126.721725,168.637787 126.890778,168.410400 126.980148,168.123749 
	C151.630417,168.063065 176.280670,167.982010 200.930984,167.947845 
	C222.421097,167.918076 243.911316,167.928848 265.401459,167.947662 
	C272.944855,167.954269 275.952362,170.981995 275.968231,178.524353 
	C275.986481,187.187012 275.985107,195.849777 275.960510,204.512421 
	C275.935394,213.373459 273.186768,216.184204 264.351624,216.187256 
	C218.872498,216.203018 173.393372,216.184204 127.356033,215.867096 
	C126.617615,215.288803 126.373299,215.106995 126.064888,215.011292 
	C125.692795,203.325989 133.000427,196.024902 145.299042,196.009628 
	C179.251785,195.967422 213.204620,195.995010 247.157410,195.994980 
	C248.946014,195.994965 250.734619,195.994965 252.766006,195.994965 
	C252.766006,193.215561 252.766006,190.979416 252.766006,188.069321 
	C211.005005,188.069321 169.455231,188.069321 127.345840,187.786148 
	C126.602577,187.260147 126.364456,187.096588 126.071877,187.012283 
z"/>
<path fill="#121212" opacity="1.000000" stroke="none" 
	d="
M125.697945,153.018890 
	C125.789703,148.643692 125.881454,144.268509 126.250206,139.338211 
	C126.755745,138.604507 126.909126,138.375565 126.987343,138.096252 
	C128.428070,137.816879 129.868591,137.294586 131.309570,137.293335 
	C178.169296,137.252747 225.029037,137.261749 271.888794,137.271774 
	C272.382050,137.271881 272.875305,137.383087 273.828003,137.957794 
	C274.605133,138.670090 274.922852,138.866989 275.240570,139.063889 
	C275.481934,144.461227 275.839905,149.858582 275.839783,155.255920 
	C275.839752,156.071198 274.292633,157.282852 273.244629,157.603516 
	C271.869965,158.024078 270.280334,157.759262 268.783142,157.759674 
	C229.494370,157.770721 190.205582,157.777939 150.149231,157.858261 
	C149.259720,158.286255 149.137787,158.641785 149.015839,158.997314 
	C148.952057,159.435928 148.888260,159.874527 148.653961,160.772049 
	C148.322830,161.160919 148.162186,161.090881 147.708160,160.722443 
	C140.304077,160.284454 133.193359,160.144897 126.082634,160.005310 
	C126.018143,159.834305 125.953659,159.663284 125.864838,158.815628 
	C125.792976,156.432281 125.745461,154.725586 125.697945,153.018890 
z"/>
<path fill="#121212" opacity="1.000000" stroke="none" 
	d="
M127.013504,222.933716 
	C128.501724,222.847610 129.989929,222.686722 131.478165,222.686279 
	C177.263016,222.672562 223.047882,222.673370 268.832733,222.675430 
	C275.977905,222.675751 275.977905,222.683487 275.977509,229.910538 
	C275.976776,242.970627 275.976776,242.970062 262.831665,242.969986 
	C219.211182,242.969727 175.590454,242.903381 131.970566,243.064880 
	C127.203049,243.082520 125.294609,241.794449 125.764969,236.887787 
	C126.144600,232.927505 125.861412,228.903717 126.180923,224.329468 
	C126.737595,223.525497 126.912239,223.253128 127.013504,222.933716 
z"/>
<path fill="#131313" opacity="1.000000" stroke="none" 
	d="
M187.117798,112.435089 
	C182.677475,117.808098 178.355576,123.287529 173.700745,128.467789 
	C172.724197,129.554565 170.525772,129.954971 168.884705,129.968216 
	C155.224243,130.078445 141.562469,130.023773 127.343254,129.748688 
	C126.606239,129.244308 126.374016,129.089905 126.088753,129.015228 
	C126.030807,125.971878 125.972862,122.928520 126.444946,119.429840 
	C127.559715,118.928642 128.144455,118.882767 128.729202,118.836899 
	C141.467026,123.885612 147.355759,122.245262 156.879059,111.268326 
	C157.648682,110.381218 159.370850,109.957970 160.658386,109.941422 
	C169.133408,109.832565 177.610626,109.894478 186.551483,110.385887 
	C187.049835,111.392418 187.083817,111.913750 187.117798,112.435089 
z"/>
<path fill="#DA2521" opacity="1.000000" stroke="none" 
	d="
M126.052147,104.421707 
	C124.749969,95.223938 130.261032,89.952667 135.972473,88.369659 
	C141.783630,86.759010 148.193909,89.579407 151.209274,95.028603 
	C154.792953,101.504837 152.644470,109.436577 146.284668,113.209297 
	C139.945236,116.969925 131.830505,115.087746 127.948227,108.878372 
	C127.169182,107.632355 126.705643,106.189079 126.052147,104.421707 
z"/>
<path fill="#131313" opacity="1.000000" stroke="none" 
	d="
M187.496765,91.455841 
	C181.173248,92.858688 174.794739,94.025658 168.374252,94.875587 
	C166.744507,95.091331 164.547028,94.838509 163.352127,93.878143 
	C157.158585,88.900208 151.205414,83.623199 144.537506,77.909775 
	C152.356949,76.779678 159.398376,75.653282 166.476074,74.844467 
	C167.677948,74.707108 169.232544,75.695236 170.288574,76.569000 
	C176.059006,81.343498 181.724579,86.244682 187.496765,91.455841 
z"/>
<path fill="#131313" opacity="1.000000" stroke="none" 
	d="
M231.393005,78.616470 
	C233.635437,80.530029 235.613968,82.206825 238.243011,84.434959 
	C230.359283,85.660492 223.430206,86.761925 216.489090,87.781311 
	C215.745636,87.890488 214.711960,87.781448 214.184357,87.334831 
	C207.793839,81.925339 201.473145,76.433365 194.597672,70.499748 
	C202.108673,69.333229 208.722137,68.158333 215.382156,67.383507 
	C216.903702,67.206490 218.863876,68.052223 220.141830,69.045334 
	C223.932816,71.991356 227.484100,75.245834 231.393005,78.616470 
z"/>
<path fill="#121212" opacity="1.000000" stroke="none" 
	d="
M245.964813,128.985718 
	C250.539108,123.541389 255.073380,118.062675 259.705597,112.668060 
	C261.840179,110.182137 271.893677,108.534874 274.372650,110.436470 
	C275.334381,111.174202 275.874084,112.930313 275.963562,114.265564 
	C277.019897,130.030045 276.987823,130.033356 261.335876,130.031448 
	C256.857635,130.030914 252.379379,130.021561 247.319397,129.741058 
	C246.514160,129.250916 246.256531,129.090866 245.964813,128.985718 
z"/>
<path fill="#131313" opacity="1.000000" stroke="none" 
	d="
M200.424194,126.229034 
	C203.146393,123.090225 206.046982,120.441071 208.018280,117.222725 
	C211.415237,111.676842 216.091644,110.205986 222.219482,110.829681 
	C226.589264,111.274445 231.040802,110.916023 236.335281,110.916023 
	C230.844742,117.358566 225.957596,123.130157 221.005325,128.845337 
	C220.521713,129.403473 219.640610,129.928406 218.937561,129.936920 
	C212.194061,130.018539 205.449188,129.985748 197.926910,129.985748 
	C199.008163,128.298264 199.596298,127.380409 200.424194,126.229034 
z"/>
<path fill="#131313" opacity="1.000000" stroke="none" 
	d="
M275.845703,74.984314 
	C275.925751,75.436859 276.005798,75.889404 275.794128,76.803627 
	C275.263885,77.499725 275.115814,77.781654 275.058197,78.111084 
	C275.058197,78.111084 275.033325,78.031433 274.844727,78.119690 
	C274.354126,78.356819 274.139099,78.586914 274.010956,78.898224 
	C271.280792,79.350121 268.550598,79.802010 265.374146,79.781891 
	C263.235352,78.224571 261.542877,77.139267 259.850403,76.053970 
	C258.944733,75.333511 258.039093,74.613045 257.006592,73.241394 
	C255.535538,71.745270 254.191269,70.900330 252.847015,70.055389 
	C251.944550,69.340294 251.042068,68.625198 250.039673,67.218315 
	C249.958130,65.078865 249.976547,63.631199 249.994949,62.183533 
	C255.974152,61.308788 262.011292,60.709469 267.913330,59.467865 
	C272.251038,58.555340 274.174713,59.849724 274.368958,64.177521 
	C274.501129,67.121727 274.784485,70.059151 275.094543,73.667999 
	C275.331696,74.629478 275.550659,74.845444 275.845703,74.984314 
z"/>
<path fill="#070707" opacity="1.000000" stroke="none" 
	d="
M126.024895,160.444031 
	C133.193359,160.144897 140.304077,160.284454 147.546524,160.895416 
	C147.380142,161.505478 147.155792,161.720978 147.005203,162.013275 
	C141.089935,161.998734 135.173569,162.038666 129.260345,161.921021 
	C128.156174,161.899033 127.064568,161.245041 126.024895,160.444031 
z"/>
<path fill="#0D0D0D" opacity="1.000000" stroke="none" 
	d="
M249.631683,62.220184 
	C249.976547,63.631199 249.958130,65.078865 249.903900,66.959991 
	C248.221878,66.163261 246.575714,64.933083 244.541016,63.412560 
	C246.577438,62.914703 247.922928,62.585766 249.631683,62.220184 
z"/>
<path fill="#FFFFFF" opacity="1.000000" stroke="none" 
	d="
M125.367989,153.126709 
	C125.745461,154.725586 125.792976,156.432281 125.765717,158.560028 
	C125.473305,157.065582 125.255669,155.150055 125.367989,153.126709 
z"/>
<path fill="#0D0D0D" opacity="1.000000" stroke="none" 
	d="
M259.991058,76.358063 
	C261.542877,77.139267 263.235352,78.224571 264.964661,79.671310 
	C263.378204,78.909210 261.754974,77.785675 259.991058,76.358063 
z"/>
<path fill="#0D0D0D" opacity="1.000000" stroke="none" 
	d="
M252.987610,70.361832 
	C254.191269,70.900330 255.535538,71.745270 256.877228,72.978134 
	C255.625839,72.466789 254.377029,71.567528 252.987610,70.361832 
z"/>
<path fill="#FFFFFF" opacity="1.000000" stroke="none" 
	d="
M147.193329,162.253693 
	C147.155792,161.720978 147.380142,161.505478 147.839905,161.193817 
	C148.162186,161.090881 148.322830,161.160919 148.713257,161.103317 
	C149.116638,161.474548 149.290253,161.973419 149.463852,162.472290 
	C148.769714,162.479568 148.075577,162.486847 147.193329,162.253693 
z"/>
<path fill="#000001" opacity="1.000000" stroke="none" 
	d="
M128.512939,118.541382 
	C128.144455,118.882767 127.559715,118.928642 126.535904,118.982170 
	C126.169289,118.392075 126.241745,117.794327 126.314209,117.196579 
	C126.975037,117.546333 127.635864,117.896095 128.512939,118.541382 
z"/>
<path fill="#000001" opacity="1.000000" stroke="none" 
	d="
M187.415558,112.252121 
	C187.083817,111.913750 187.049835,111.392418 187.012543,110.479286 
	C187.591354,110.139679 188.173447,110.191864 188.755554,110.244049 
	C188.408142,110.852409 188.060745,111.460777 187.415558,112.252121 
z"/>
<path fill="#000001" opacity="1.000000" stroke="none" 
	d="
M245.709869,129.088776 
	C246.256531,129.090866 246.514160,129.250916 246.854828,129.662231 
	C246.466309,129.636322 245.960617,129.414078 245.709869,129.088776 
z"/>
<path fill="#000001" opacity="1.000000" stroke="none" 
	d="
M126.051193,129.287781 
	C126.374016,129.089905 126.606239,129.244308 126.878815,129.669144 
	C126.652672,129.759995 126.333145,129.660172 126.051193,129.287781 
z"/>
<path fill="#0D0D0D" opacity="1.000000" stroke="none" 
	d="
M275.873596,74.719818 
	C275.550659,74.845444 275.331696,74.629478 275.110229,74.115562 
	C275.321625,74.081589 275.611542,74.268448 275.873596,74.719818 
z"/>
<path fill="#070707" opacity="1.000000" stroke="none" 
	d="
M126.723602,138.087372 
	C126.909126,138.375565 126.755745,138.604507 126.341057,138.879303 
	C126.256561,138.676483 126.358208,138.377487 126.723602,138.087372 
z"/>
<path fill="#070707" opacity="1.000000" stroke="none" 
	d="
M275.148071,138.771149 
	C274.922852,138.866989 274.605133,138.670090 274.145386,138.229675 
	C274.354095,138.150269 274.704834,138.314331 275.148071,138.771149 
z"/>
<path fill="#FFFFFF" opacity="1.000000" stroke="none" 
	d="
M149.232040,158.888062 
	C149.137787,158.641785 149.259720,158.286255 149.691040,157.964279 
	C149.899429,158.316910 149.715378,158.577240 149.232040,158.888062 
z"/>
<path fill="#0D0D0D" opacity="1.000000" stroke="none" 
	d="
M275.315704,78.022217 
	C275.115814,77.781654 275.263885,77.499725 275.708679,77.139038 
	C275.801086,77.319633 275.687164,77.626488 275.315704,78.022217 
z"/>
<path fill="#000001" opacity="1.000000" stroke="none" 
	d="
M126.702301,168.090179 
	C126.890778,168.410400 126.721725,168.637787 126.276428,168.895020 
	C126.194733,168.674957 126.309586,168.365784 126.702301,168.090179 
z"/>
<path fill="#000001" opacity="1.000000" stroke="none" 
	d="
M126.033554,187.295105 
	C126.364456,187.096588 126.602577,187.260147 126.882797,187.700363 
	C126.651299,187.791153 126.323265,187.684540 126.033554,187.295105 
z"/>
<path fill="#000001" opacity="1.000000" stroke="none" 
	d="
M126.029366,215.308411 
	C126.373299,215.106995 126.617615,215.288803 126.896446,215.766754 
	C126.661316,215.853043 126.327583,215.729279 126.029366,215.308411 
z"/>
<path fill="#000001" opacity="1.000000" stroke="none" 
	d="
M126.700684,222.903976 
	C126.912239,223.253128 126.737595,223.525497 126.275047,223.868866 
	C126.169632,223.616013 126.278755,223.245132 126.700684,222.903976 
z"/>
<path fill="#0D0D0D" opacity="1.000000" stroke="none" 
	d="
M274.279388,78.918976 
	C274.139099,78.586914 274.354126,78.356819 274.884521,78.132217 
	C274.924561,78.350891 274.736206,78.645302 274.279388,78.918976 
z"/>
</svg>